<svg width="32" height="23" viewBox="0 0 32 23" fill="none" xmlns="http://www.w3.org/2000/svg">
<path d="M3.53674 0.412964H28.4633C30.8148 0.412964 32 1.5229 32 3.78039V19.6205C32 21.8592 30.8148 22.9879 28.4633 22.9879H3.53674C1.18518 22.9879 0 21.8592 0 19.6205V3.78039C0 1.5229 1.18518 0.412964 3.53674 0.412964ZM15.9906 16.5917L28.6702 6.18839C29.1217 5.81214 29.4791 4.94677 28.9148 4.17546C28.3692 3.40415 27.3721 3.38533 26.7137 3.85564L15.9906 11.1173L5.2863 3.85564C4.62787 3.38533 3.63081 3.40415 3.08524 4.17546C2.52087 4.94677 2.87831 5.81214 3.32981 6.18839L15.9906 16.5917Z" fill="white"/>
</svg>
