<svg width="32" height="33" viewBox="0 0 32 33" fill="none" xmlns="http://www.w3.org/2000/svg">
<path d="M16 0.987915C7.16429 0.987915 0 8.1522 0 16.9879C0 25.8236 7.16429 32.9879 16 32.9879C24.8357 32.9879 32 25.8236 32 16.9879C32 8.1522 24.8357 0.987915 16 0.987915ZM21.9643 23.6165C20.5143 24.9522 18.5357 25.7379 16.175 25.7379C12.7571 25.7379 9.8 23.7772 8.36071 20.9201C7.76786 19.7379 7.42857 18.4022 7.42857 16.9879C7.42857 15.5736 7.76786 14.2379 8.36071 13.0558C9.8 10.1951 12.7571 8.23434 16.175 8.23434C18.5321 8.23434 20.5107 9.1022 22.0286 10.5129L19.5214 13.0236C18.6143 12.1558 17.4607 11.7165 16.1786 11.7165C13.9 11.7165 11.9714 13.2558 11.2821 15.3236C11.1071 15.8486 11.0071 16.4093 11.0071 16.9879C11.0071 17.5665 11.1071 18.1272 11.2821 18.6522C11.9714 20.7201 13.9 22.2593 16.175 22.2593C17.3536 22.2593 18.3536 21.9486 19.1357 21.4236C20.0643 20.8022 20.6786 19.8772 20.8821 18.7808H16.175V15.3951H24.4143C24.5179 15.9701 24.5714 16.5665 24.5714 17.1843C24.5714 19.8522 23.6179 22.0915 21.9643 23.6165V23.6165Z" fill="white"/>
</svg>
