<svg width="32" height="33" viewBox="0 0 32 33" fill="none" xmlns="http://www.w3.org/2000/svg">
<path d="M16 0.412964C7.16333 0.412964 0 7.5763 0 16.413C0 25.2496 7.16333 32.413 16 32.413C24.8367 32.413 32 25.2496 32 16.413C32 7.5763 24.8367 0.412964 16 0.412964ZM12.0833 23.0446H8.84333V12.618H12.0833V23.0446ZM10.4433 11.338C9.42 11.338 8.75833 10.613 8.75833 9.7163C8.75833 8.8013 9.44 8.09796 10.485 8.09796C11.53 8.09796 12.17 8.8013 12.19 9.7163C12.19 10.613 11.53 11.338 10.4433 11.338ZM23.9167 23.0446H20.6767V17.2663C20.6767 15.9213 20.2067 15.008 19.035 15.008C18.14 15.008 17.6083 15.6263 17.3733 16.2213C17.2867 16.433 17.265 16.733 17.265 17.0313V23.043H14.0233V15.943C14.0233 14.6413 13.9817 13.553 13.9383 12.6163H16.7533L16.9017 14.0646H16.9667C17.3933 13.3846 18.4383 12.3813 20.1867 12.3813C22.3183 12.3813 23.9167 13.8096 23.9167 16.8796V23.0446V23.0446Z" fill="white"/>
</svg>
