<svg width="32" height="23" viewBox="0 0 32 23" fill="none" xmlns="http://www.w3.org/2000/svg">
<path d="M31.349 3.52383C31.1669 2.84786 30.811 2.23139 30.3167 1.73579C29.8225 1.24019 29.2071 0.882742 28.5318 0.699016C26.028 0.0112087 16.0111 1.2151e-05 16.0111 1.2151e-05C16.0111 1.2151e-05 5.99576 -0.011185 3.49033 0.646231C2.81549 0.838412 2.20136 1.20092 1.7069 1.69895C1.21244 2.19698 0.854255 2.81382 0.666731 3.49024C0.00639811 5.99514 2.34257e-06 11.1905 2.34257e-06 11.1905C2.34257e-06 11.1905 -0.00639311 16.4114 0.649143 18.8907C1.01688 20.2615 2.09612 21.3444 3.46795 21.7139C5.99736 22.4017 15.9871 22.4129 15.9871 22.4129C15.9871 22.4129 26.004 22.4241 28.5078 21.7683C29.1833 21.5849 29.7993 21.2283 30.2948 20.7337C30.7903 20.2391 31.1482 19.6237 31.333 18.9483C31.995 16.445 31.9998 11.2513 31.9998 11.2513C31.9998 11.2513 32.0317 6.02873 31.349 3.52383V3.52383ZM12.8069 16.0035L12.8149 6.40622L21.1402 11.2129L12.8069 16.0035V16.0035Z" fill="white"/>
</svg>
